# xmcd
#
# Track frame offsets:
#	150
#	15187
#	27772
#	43966
#	60531
#	71259
#	84828
#	102906
#	120744
#	132198
#	151338
#	169853
#	181769
#	195918
#	213268
#	226720
#	241254
#	253652
#	266359
#	300467
#
# Disc length: 4447 seconds
#
# Revision: 1
# Processed by: cddbd v1.5.2PL0 Copyright (c) Steve Scherf et al.
# Submitted via: EasyCDDAExtractor 10.0.3.1
#
DISCID=ed115d14
DTITLE=Illényi Katica - Mézillatú Nyár
DYEAR=2004
DGENRE=Swing
TTITLE0=Mon Homme
TTITLE1=Az Utca Napos Oldalán
TTITLE2=It Had To Be You
TTITLE3=Cherbourgi Esernyök
TTITLE4=I Got Rhytm
TTITLE5=Senki Sem Vigyáz Rám
TTITLE6=My Heart Belongs To Daddy
TTITLE7=Tea For Two
TTITLE8=I Can't Give You Anything But Love
TTITLE9=Our Love Is Here To Stay
TTITLE10=Mézillatú Nyár
TTITLE11=Sírj Csak Szivem
TTITLE12=Azért Születtem
TTITLE13=La Chanson Des Rues
TTITLE14=Makin' Whoopee
TTITLE15=Embracable You
TTITLE16=Tiger Rag
TTITLE17=Engem Nem Lehet Elfelejteni
TTITLE18=Monti Csárdás
TTITLE19=Video
EXTD=YEAR: 2004
EXTT0=
EXTT1=
EXTT2=
EXTT3=
EXTT4=
EXTT5=
EXTT6=
EXTT7=
EXTT8=
EXTT9=
EXTT10=
EXTT11=
EXTT12=
EXTT13=
EXTT14=
EXTT15=
EXTT16=
EXTT17=
EXTT18=
EXTT19=
PLAYORDER=
